<?xml version="1.0" encoding="UTF-8" standalone="no"?>
<svg
   xmlns:dc="http://purl.org/dc/elements/1.1/"
   xmlns:cc="http://creativecommons.org/ns#"
   xmlns:rdf="http://www.w3.org/1999/02/22-rdf-syntax-ns#"
   xmlns:svg="http://www.w3.org/2000/svg"
   xmlns="http://www.w3.org/2000/svg"
   viewBox="0 0 928.84003 382.88"
   height="382.88"
   width="928.84003"
   xml:space="preserve"
   id="svg2"
   version="1.1"><metadata
     id="metadata8"><rdf:RDF><cc:Work
         rdf:about=""><dc:format>image/svg+xml</dc:format><dc:type
           rdf:resource="http://purl.org/dc/dcmitype/StillImage" /></cc:Work></rdf:RDF></metadata><defs
     id="defs6" /><g
     transform="matrix(1.3333333,0,0,-1.3333333,0,382.88)"
     id="g10"><g
       transform="scale(0.1)"
       id="g12"><path
         id="path14"
         style="fill:#ffffff;fill-opacity:1;fill-rule:nonzero;stroke:none"
         d="m 4543.17,2236 c -1.71,-0.59 -3.11,0.41 -3.1,2.22 l 0.62,191.84 c 0,1.8 -1.45,3.51 -3.23,3.8 l -913.42,147.3 c -1.79,0.29 -3.24,1.99 -3.24,3.8 l 0.03,116.86 c 0,1.81 -1.47,3.28 -3.28,3.28 H 3361 c -1.81,0 -3.29,-1.47 -3.29,-3.28 l -0.15,-112.28 c 0,-1.81 -1.46,-3.52 -3.24,-3.8 L 2442.44,2441 c -1.79,-0.27 -3.25,-1.98 -3.25,-3.79 v -212.1 c 0,-1.81 -1.39,-2.78 -3.09,-2.18 l -944.18,336.43 c -1.7,0.6 -3.11,-0.37 -3.14,-2.18 l -1.83,-113.96 c -0.03,-1.81 -1.47,-2.87 -3.2,-2.37 L 2.20703,2871.49 c -1.734374,0.5 -2.636718,-0.47 -2.007811,-2.17 L 145.445,2477.72 c 0.629,-1.69 2.602,-3.28 4.391,-3.54 l 121.734,-17.39 c 1.789,-0.26 3.746,-1.86 4.364,-3.56 l 134.707,-373.74 c 0.613,-1.7 2.586,-3.09 4.394,-3.1 l 204.61,-0.94 c 1.804,-0.01 3.789,-1.4 4.414,-3.09 l 135.504,-369.05 c 0.625,-1.69 2.605,-3.08 4.414,-3.09 l 245.103,-0.35 c 1.81,0 3.8,-1.38 4.43,-3.08 l 115.47,-309.52 c 0.63,-1.69 2.62,-3.1 4.43,-3.12 l 195.93,-1.97 c 1.81,-0.02 3.78,-1.42 4.39,-3.12 l 99.98,-278.28 c 0.61,-1.7 2.58,-3.09 4.39,-3.09 h 735.93 c 1.8,0 2.74,-1.39 2.09,-3.07 l -13.05,-33.42 c -0.66,-1.67 -2.67,-3.06 -4.48,-3.07 l -131.56,-0.8 c -1.81,-0.01 -3.7,-1.44 -4.2,-3.18 l -54.94,-188.591 c -0.5,-1.739 -2.39,-3.137 -4.2,-3.137 H 1862.5 c -1.81,0 -3.86,-1.371 -4.57,-3.031 l -74.09,-174.403 c -0.71,-1.66 -2.76,-3.019 -4.56,-3.039 l -113.13,-0.687 c -1.8,0 -3.79,-1.403 -4.42,-3.082 l -90.29,-244.442 c -0.62,-1.699 0.3,-2.738 2.06,-2.316 l 749.1,176.398 c 1.76,0.418 4.08,-0.422 5.18,-1.859 l 76.49,-100.289 c 1.09,-1.442 1.07,-3.774 -0.05,-5.192 L 2282.49,345.809 c -1.12,-1.411 -2.92,-3.75 -4.01,-5.188 0,0 -3.48,-4.609 -1.85,-8.59 1.74,-4.269 6.23,-4.652 8.85,-4.793 h 272.11 c 1.81,0 3.28,-1.476 3.28,-3.277 V 215.23 c 0,-1.82 1.48,-3.281 3.29,-3.281 l 505.73,-0.051 c 1.81,0 4.46,-0.886 5.9,-1.98 L 3350.74,1.98828 C 3352.18,0.890625 3354.83,0 3356.64,0 h 248.68 c 1.8,0 4.47,0.871094 5.93,1.92969 L 3896.74,208.531 c 1.47,1.047 4.13,1.918 5.94,1.918 h 496.73 c 1.81,0 3.28,1.481 3.27,3.281 l -0.16,110.098 c -0.01,1.813 1.47,3.281 3.28,3.281 l 269.44,0.129 c 1.81,0 4.73,0.313 6.48,0.711 0,0 2.04,0.461 2.95,2.629 0.85,2.031 -0.66,4.281 -0.66,4.281 -1.01,1.5 -2.73,3.903 -3.83,5.332 l -124.95,162.528 c -1.1,1.429 -1.1,3.781 0,5.203 l 74.1,96.5 c 1.1,1.43 3.44,2.258 5.2,1.84 l 757.78,-177.981 c 1.76,-0.41 2.69,0.629 2.06,2.321 l -89.81,245.019 c -0.63,1.699 -2.61,3.078 -4.42,3.078 l -113.97,0.02 c -1.81,0 -3.86,1.351 -4.56,3.019 l -74.11,175.25 c -0.7,1.66 -2.75,3.012 -4.56,3.012 h -101.43 c -1.81,0 -3.69,1.418 -4.2,3.16 l -55.06,189.43 c -0.51,1.74 -2.39,3.15 -4.2,3.15 l -129.87,-0.47 c -1.81,-0.01 -3.79,1.36 -4.42,3.06 l -13.16,35.79 c -0.62,1.69 0.34,3.08 2.15,3.08 l 734.47,-0.48 c 1.81,0 3.78,1.39 4.4,3.09 l 100.46,278.76 c 0.61,1.7 2.58,3.09 4.39,3.1 l 196.89,0.46 c 1.81,0.01 3.79,1.4 4.42,3.09 l 113.93,308.68 c 0.63,1.68 2.61,3.08 4.42,3.09 l 245.11,0.93 c 1.8,0.01 3.78,1.41 4.41,3.1 l 136.58,370.86 c 0.63,1.69 2.61,3.07 4.42,3.07 l 204.6,-0.94 c 1.81,-0.01 3.79,1.38 4.41,3.07 l 135.64,373.27 c 0.62,1.7 2.59,3.29 4.38,3.54 l 119.81,16.92 c 1.79,0.25 3.77,1.84 4.4,3.53 l 146.2,394.98 c 0.63,1.7 -0.27,2.66 -2,2.16 L 5480.13,2438.44 c -1.73,-0.51 -3.14,0.55 -3.14,2.36 v 113.49 c 0,1.81 -1.4,2.8 -3.11,2.21 L 4543.17,2236" /><path
         id="path16"
         style="fill:#82878e;fill-opacity:1;fill-rule:nonzero;stroke:none"
         d="M 2475.24,2193.63 1506.47,2534.9 1505.66,2417 26.7852,2848.86 158.863,2489.57 286.367,2471.8 423.32,2093.46 l 212.078,0.87 137.903,-377.14 250.989,0.03 117.05,-315.77 h 203.22 l 102.26,-284.91 H 2201 l -28.05,-76.22 -135.86,0.03 -56.74,-195.362 h -109.56 l -75.94,-180.367 -120.37,-0.562 -76.78,-209.071 798.19,187.043 162.6,21.25 -83.24,280.879 -0.01,1249.47" /><path
         id="path18"
         style="fill:none;stroke:#82878e;stroke-width:2.89277005;stroke-linecap:butt;stroke-linejoin:miter;stroke-miterlimit:10;stroke-dasharray:none;stroke-opacity:1"
         d="M 2475.24,2193.63 1506.47,2534.9 1505.66,2417 26.7852,2848.86 158.863,2489.57 286.367,2471.8 423.32,2093.46 l 212.078,0.87 137.903,-377.14 250.989,0.03 117.05,-315.77 h 203.22 l 102.26,-284.91 H 2201 l -28.05,-76.22 -135.86,0.03 -56.74,-195.362 h -109.56 l -75.94,-180.367 -120.37,-0.562 -76.78,-209.071 798.19,187.043 162.6,21.25 -83.24,280.879 -0.01,1249.47" /><path
         id="path20"
         style="fill:#82878e;fill-opacity:1;fill-rule:nonzero;stroke:none"
         d="m 4421.09,659.309 148.61,-19.399 798.21,-187.039 -76.78,209.07 -120.38,0.547 -75.94,180.383 h -109.56 l -56.74,195.359 -135.86,-0.03 -28.05,76.21 h 754.17 l 102.28,284.91 h 203.2 l 117.05,315.78 251,-0.03 137.91,377.14 212.07,-0.87 136.95,378.34 127.51,17.77 132.07,359.28 -1478.86,-431.85 -0.82,117.9 -955.83,-336.73 V 944.809 l -82.21,-285.5" /><path
         id="path22"
         style="fill:none;stroke:#82878e;stroke-width:2.89277005;stroke-linecap:butt;stroke-linejoin:miter;stroke-miterlimit:10;stroke-dasharray:none;stroke-opacity:1"
         d="m 4421.09,659.309 148.61,-19.399 798.21,-187.039 -76.78,209.07 -120.38,0.547 -75.94,180.383 h -109.56 l -56.74,195.359 -135.86,-0.03 -28.05,76.21 h 754.17 l 102.28,284.91 h 203.2 l 117.05,315.78 251,-0.03 137.91,377.14 212.07,-0.87 136.95,378.34 127.51,17.77 132.07,359.28 -1478.86,-431.85 -0.82,117.9 -955.83,-336.73 V 944.809 Z" /><path
         id="path24"
         style="fill:#293461;fill-opacity:1;fill-rule:nonzero;stroke:none"
         d="m 4511.98,2022.45 850.38,326.52 c 2.79,1.07 5.97,0.69 8.43,-1 2.48,-1.7 3.95,-4.51 3.95,-7.52 v -99.08 L 6706,2599.11 c 4.86,1.32 9.87,-1.57 11.19,-6.45 1.3,-4.86 -1.58,-9.87 -6.45,-11.17 L 5367.99,2220.66 c -2.76,-0.74 -5.66,-0.17 -7.92,1.57 -2.24,1.72 -3.56,4.4 -3.56,7.24 v 97.71 L 4511.98,2002.9 v 19.55" /><path
         id="path26"
         style="fill:#293461;fill-opacity:1;fill-rule:nonzero;stroke:none"
         d="m 6717.08,2550.02 c 21.94,5.89 34.96,28.47 29.06,50.42 -5.9,21.95 -28.48,34.96 -50.43,29.07 -21.95,-5.9 -34.96,-28.48 -29.06,-50.43 5.89,-21.95 28.47,-34.97 50.43,-29.06" /><path
         id="path28"
         style="fill:#293461;fill-opacity:1;fill-rule:nonzero;stroke:none"
         d="m 4511.98,1887.11 719.84,163.73 v -83.65 l 1148.8,256.58 3.98,-17.81 -1171.02,-261.54 v 83.55 l -701.6,-159.57 v 18.71" /><path
         id="path30"
         style="fill:#293461;fill-opacity:1;fill-rule:nonzero;stroke:none"
         d="m 6389.58,2174.25 c 22.17,4.95 36.14,26.95 31.19,49.14 -4.94,22.18 -26.96,36.15 -49.14,31.2 -22.18,-4.96 -36.15,-26.96 -31.21,-49.15 4.97,-22.18 26.97,-36.14 49.16,-31.19" /><path
         id="path32"
         style="fill:#293461;fill-opacity:1;fill-rule:nonzero;stroke:none"
         d="m 4511.95,1730.92 589.13,77.93 v -67.28 l 927,122.39 2.39,-18.1 -947.62,-125.1 v 67.28 l -570.87,-75.53 -0.03,18.41" /><path
         id="path34"
         style="fill:#293461;fill-opacity:1;fill-rule:nonzero;stroke:none"
         d="m 6032.63,1813.84 c 22.53,2.97 38.39,23.66 35.41,46.19 -2.97,22.53 -23.66,38.39 -46.19,35.41 -22.53,-2.97 -38.39,-23.65 -35.41,-46.18 2.97,-22.54 23.66,-38.4 46.19,-35.42" /><path
         id="path36"
         style="fill:#293461;fill-opacity:1;fill-rule:nonzero;stroke:none"
         d="m 4511.98,1541.79 502.43,64.04 v -96.59 l 733.64,34.23 0.86,-18.23 -752.73,-35.12 v 95 l -484.2,-61.71 v 18.38" /><path
         id="path38"
         style="fill:#293461;fill-opacity:1;fill-rule:nonzero;stroke:none"
         d="m 5748.33,1493.14 c 22.72,1.06 40.27,20.34 39.2,43.04 -1.05,22.7 -20.32,40.25 -43.02,39.19 -22.71,-1.06 -40.25,-20.33 -39.2,-43.03 1.06,-22.7 20.33,-40.26 43.02,-39.2" /><path
         id="path40"
         style="fill:#293461;fill-opacity:1;fill-rule:nonzero;stroke:none"
         d="m 4870.91,1204.91 -3.15,160.12 -355.78,-44.06 v 18.38 l 373.64,46.27 3.17,-161.35 514.79,31.27 1.1,-18.21 -533.77,-32.42" /><path
         id="path42"
         style="fill:#293461;fill-opacity:1;fill-rule:nonzero;stroke:none"
         d="m 5404.58,1205.24 c 22.68,1.38 39.97,20.88 38.58,43.56 -1.38,22.7 -20.89,39.98 -43.57,38.6 -22.69,-1.38 -39.97,-20.9 -38.59,-43.59 1.38,-22.67 20.9,-39.95 43.58,-38.57" /><path
         id="path44"
         style="fill:#293461;fill-opacity:1;fill-rule:nonzero;stroke:none"
         d="m 4867.16,906.27 -348.01,56.609 5.34,113.111 -12.5,0.55 0.01,18.25 31.58,-1.36 -5.45,-115.149 331.97,-53.992 -2.94,-18.019" /><path
         id="path46"
         style="fill:#293461;fill-opacity:1;fill-rule:nonzero;stroke:none"
         d="m 4859.99,874.98 c 22.43,-3.64 43.58,11.59 47.23,34.02 3.65,22.43 -11.58,43.578 -34.01,47.23 -22.43,3.649 -43.59,-11.582 -47.24,-34.011 -3.64,-22.438 11.58,-43.578 34.02,-47.239" /><path
         id="path48"
         style="fill:#293461;fill-opacity:1;fill-rule:nonzero;stroke:none"
         d="m 5063.25,713.18 -587.35,106.601 5.11,17.617 585.5,-106.277 -3.26,-17.941" /><path
         id="path50"
         style="fill:#293461;fill-opacity:1;fill-rule:nonzero;stroke:none"
         d="m 5055.51,682.031 c 22.37,-4.07 43.79,10.77 47.84,33.129 4.06,22.36 -10.78,43.789 -33.14,47.84 -22.36,4.059 -43.79,-10.781 -47.84,-33.141 -4.07,-22.371 10.78,-43.789 33.14,-47.828" /><path
         id="path52"
         style="fill:#293461;fill-opacity:1;fill-rule:nonzero;stroke:none"
         d="m 5166.15,575.91 -716.28,154.488 5.09,17.551 715.03,-154.211 -3.84,-17.828" /><path
         id="path54"
         style="fill:#293461;fill-opacity:1;fill-rule:nonzero;stroke:none"
         d="m 5157.38,545.031 c 22.21,-4.801 44.11,9.34 48.9,31.547 4.8,22.211 -9.33,44.121 -31.55,48.902 -22.23,4.801 -44.12,-9.332 -48.91,-31.539 -4.79,-22.222 9.34,-44.121 31.56,-48.91" /><path
         id="path56"
         style="fill:#293461;fill-opacity:1;fill-rule:nonzero;stroke:none"
         d="M 2466.59,2000.05 1609.1,2329.3 v -97.71 c 0,-2.84 -1.33,-5.51 -3.57,-7.23 -2.24,-1.73 -5.17,-2.31 -7.91,-1.58 L 254.855,2583.61 c -4.859,1.3 -7.742,6.31 -6.441,11.18 1.309,4.87 6.313,7.75 11.188,6.43 L 1590.86,2243.49 v 99.09 c 0,3.01 1.48,5.81 3.95,7.52 2.48,1.7 5.66,2.06 8.43,0.99 l 863.3,-331.48 0.05,-19.56" /><path
         id="path58"
         style="fill:#293461;fill-opacity:1;fill-rule:nonzero;stroke:none"
         d="m 269.895,2631.64 c -21.957,5.89 -44.536,-7.12 -50.43,-29.07 -5.902,-21.96 7.117,-44.54 29.058,-50.43 21.957,-5.9 44.536,7.11 50.43,29.06 5.902,21.95 -7.117,44.53 -29.058,50.44" /><path
         id="path60"
         style="fill:#293461;fill-opacity:1;fill-rule:nonzero;stroke:none"
         d="m 2466.63,1867.57 -714.61,162.53 v -83.55 L 581,2208.09 l 3.98,17.81 1148.8,-256.58 v 83.64 l 732.73,-166.65 0.12,-18.74" /><path
         id="path62"
         style="fill:#293461;fill-opacity:1;fill-rule:nonzero;stroke:none"
         d="m 593.977,2256.71 c -22.184,4.95 -44.196,-9.01 -49.149,-31.2 -4.945,-22.18 9.02,-44.18 31.203,-49.13 22.176,-4.96 44.18,9.01 49.129,31.19 4.961,22.18 -9.004,44.19 -31.183,49.14" /><path
         id="path64"
         style="fill:#293461;fill-opacity:1;fill-rule:nonzero;stroke:none"
         d="m 2466.62,1712.92 -583.86,77.24 v -67.28 l -947.643,125.11 2.395,18.09 927.008,-122.38 v 67.28 l 602.14,-79.66 -0.04,-18.4" /><path
         id="path66"
         style="fill:#293461;fill-opacity:1;fill-rule:nonzero;stroke:none"
         d="m 943.75,1897.57 c -22.535,2.98 -43.223,-12.88 -46.195,-35.42 -2.969,-22.53 12.879,-43.21 35.414,-46.18 22.535,-2.98 43.222,12.88 46.195,35.41 2.969,22.53 -12.887,43.21 -35.414,46.19" /><path
         id="path68"
         style="fill:#293461;fill-opacity:1;fill-rule:nonzero;stroke:none"
         d="m 2466.56,1523.87 -497.13,63.37 v -95 l -752.75,35.12 0.86,18.23 733.65,-34.23 v 96.6 l 515.35,-65.7 0.02,-18.39" /><path
         id="path70"
         style="fill:#293461;fill-opacity:1;fill-rule:nonzero;stroke:none"
         d="m 1221.09,1577.49 c -22.7,1.06 -41.96,-16.49 -43.03,-39.19 -1.06,-22.7 16.5,-41.97 39.2,-43.03 22.71,-1.06 41.97,16.49 43.03,39.19 1.05,22.71 -16.5,41.98 -39.2,43.03" /><path
         id="path72"
         style="fill:#293461;fill-opacity:1;fill-rule:nonzero;stroke:none"
         d="m 2094.69,1207.04 -533.78,32.41 1.11,18.22 514.79,-31.27 3.18,161.34 386.61,-47.88 -0.04,-18.37 -368.72,45.66 -3.15,-160.11" /><path
         id="path74"
         style="fill:#293461;fill-opacity:1;fill-rule:nonzero;stroke:none"
         d="m 1566.01,1289.53 c -22.68,1.37 -42.19,-15.9 -43.57,-38.6 -1.38,-22.69 15.89,-42.19 38.59,-43.57 22.68,-1.38 42.19,15.9 43.57,38.57 1.38,22.7 -15.9,42.21 -38.59,43.6" /><path
         id="path76"
         style="fill:#293461;fill-opacity:1;fill-rule:nonzero;stroke:none"
         d="m 2098.44,908.398 -2.94,18.012 331.97,53.988 -5.45,115.162 44.56,1.91 v -18.26 l -25.46,-1.09 5.33,-113.108 -348.01,-56.614" /><path
         id="path78"
         style="fill:#293461;fill-opacity:1;fill-rule:nonzero;stroke:none"
         d="m 2092.39,958.352 c -22.43,-3.653 -37.66,-24.801 -34.01,-47.223 3.65,-22.43 24.8,-37.668 47.23,-34.02 22.43,3.653 37.67,24.801 34.01,47.243 -3.64,22.418 -24.8,37.66 -47.23,34" /><path
         id="path80"
         style="fill:#293461;fill-opacity:1;fill-rule:nonzero;stroke:none"
         d="m 1902.34,715.301 -3.25,17.937 592.76,107.59 v 17.641 l 10.14,-34.34 -599.65,-108.828" /><path
         id="path82"
         style="fill:#293461;fill-opacity:1;fill-rule:nonzero;stroke:none"
         d="m 1895.39,765.129 c -22.36,-4.059 -37.2,-25.488 -33.14,-47.848 4.05,-22.351 25.48,-37.191 47.84,-33.14 22.36,4.058 37.21,25.48 33.16,47.847 -4.08,22.364 -25.5,37.192 -47.86,33.141" /><path
         id="path84"
         style="fill:#293461;fill-opacity:1;fill-rule:nonzero;stroke:none"
         d="m 1799.45,578.039 -3.84,17.832 727.47,156.899 5.18,-17.54 -728.81,-157.191" /><path
         id="path86"
         style="fill:#293461;fill-opacity:1;fill-rule:nonzero;stroke:none"
         d="m 1790.88,627.609 c -22.23,-4.789 -36.35,-26.691 -31.56,-48.91 4.79,-22.211 26.69,-36.34 48.9,-31.551 22.22,4.801 36.36,26.692 31.57,48.911 -4.8,22.222 -26.7,36.339 -48.91,31.55" /><path
         id="path88"
         style="fill:#293461;fill-opacity:1;fill-rule:nonzero;stroke:none"
         d="m 2315.73,349.449 119.9,154.492 -119.9,157.207 h 244.24 l 13.65,-46.078 82.26,-62.199 78.42,0.18 V 349.449 h -418.57" /><path
         id="path90"
         style="fill:none;stroke:#82878e;stroke-width:17.35659981;stroke-linecap:round;stroke-linejoin:round;stroke-miterlimit:4;stroke-dasharray:none;stroke-opacity:1"
         d="m 2315.73,349.449 119.9,154.492 -119.9,157.207 h 244.24 l 13.65,-46.078 82.26,-62.199 78.42,0.18 V 349.449 Z" /><path
         id="path92"
         style="fill:#82878e;fill-opacity:1;fill-rule:nonzero;stroke:none"
         d="m 2588.04,552.871 34.8,25.66 33.04,-25.66 h -67.84" /><path
         id="path94"
         style="fill:none;stroke:#82878e;stroke-width:17.35659981;stroke-linecap:round;stroke-linejoin:round;stroke-miterlimit:4;stroke-dasharray:none;stroke-opacity:1"
         d="m 2588.04,552.871 34.8,25.66 33.04,-25.66 h -67.84" /><path
         id="path96"
         style="fill:#293461;fill-opacity:1;fill-rule:nonzero;stroke:none"
         d="m 4646.21,349.449 -119.9,154.492 119.9,157.207 h -224.6 l -17.45,-44.91 -82.03,-63.367 h -93.19 l -1.29,-203.422 h 418.56" /><path
         id="path98"
         style="fill:none;stroke:#82878e;stroke-width:17.35659981;stroke-linecap:round;stroke-linejoin:round;stroke-miterlimit:4;stroke-dasharray:none;stroke-opacity:1"
         d="m 4646.21,349.449 -119.9,154.492 119.9,157.207 h -224.6 l -17.45,-44.91 -82.03,-63.367 h -93.19 l -1.29,-203.422 z" /><path
         id="path100"
         style="fill:#82878e;fill-opacity:1;fill-rule:nonzero;stroke:none"
         d="m 4375.77,552.871 -26.32,19.41 -27.32,-19.41 h 53.64" /><path
         id="path102"
         style="fill:none;stroke:#82878e;stroke-width:17.35659981;stroke-linecap:round;stroke-linejoin:round;stroke-miterlimit:4;stroke-dasharray:none;stroke-opacity:1"
         d="m 4375.77,552.871 -26.32,19.41 -27.32,-19.41 h 53.64" /><path
         id="path104"
         style="fill:#ffffff;fill-opacity:1;fill-rule:nonzero;stroke:none"
         d="m 2475.25,2416.46 920.58,152.05 v 99.33 h 185.76 v -111.9 l 870.27,-147.46 51.44,-8.7 V 2277.31 923.961 L 4407.36,615.09 3610.13,34.3711 h -259.32 l -778.06,580.7189 -97.5,329.07 v 1472.3" /><path
         id="path106"
         style="fill:#293461;fill-opacity:1;fill-rule:nonzero;stroke:none"
         d="m 2524.09,2303.8 h -17.36 v 91.17 l 929.98,151.98 v 65.8 h 17.36 v -80.54 l -929.98,-151.99 v -76.42" /><path
         id="path108"
         style="fill:#293461;fill-opacity:1;fill-rule:nonzero;stroke:none"
         d="m 2541.52,2305.11 c 0,-14.41 -11.69,-26.1 -26.1,-26.1 -14.42,0 -26.11,11.69 -26.11,26.1 0,14.41 11.69,26.1 26.11,26.1 14.41,0 26.1,-11.69 26.1,-26.1" /><path
         id="path110"
         style="fill:#293461;fill-opacity:1;fill-rule:nonzero;stroke:none"
         d="m 3471.5,2611.45 c 0,14.41 -11.69,26.1 -26.11,26.1 -14.42,0 -26.1,-11.69 -26.1,-26.1 0,-14.41 11.68,-26.1 26.1,-26.1 14.42,0 26.11,11.69 26.11,26.1" /><path
         id="path112"
         style="fill:#293461;fill-opacity:1;fill-rule:nonzero;stroke:none"
         d="m 2565.21,2189.79 h -17.35 v 170.14 l 928.5,161.48 v 148.14 h 17.37 v -162.74 l -928.52,-161.47 v -155.55" /><path
         id="path114"
         style="fill:#293461;fill-opacity:1;fill-rule:nonzero;stroke:none"
         d="m 3458.94,2668.24 c 0,14.42 11.69,26.1 26.1,26.1 14.42,0 26.11,-11.68 26.11,-26.1 0,-14.41 -11.69,-26.1 -26.11,-26.1 -14.41,0 -26.1,11.69 -26.1,26.1" /><path
         id="path116"
         style="fill:#293461;fill-opacity:1;fill-rule:nonzero;stroke:none"
         d="m 2530.43,2191.09 c 0,-14.41 11.68,-26.11 26.1,-26.11 14.42,0 26.11,11.7 26.11,26.11 0,14.41 -11.69,26.1 -26.11,26.1 -14.42,0 -26.1,-11.69 -26.1,-26.1" /><path
         id="path118"
         style="fill:#293461;fill-opacity:1;fill-rule:nonzero;stroke:none"
         d="m 4501.88,2395.69 -928.96,152.89 v 119.26 h 17.35 v -104.53 l 914.44,-150.49 -2.83,-17.13" /><path
         id="path120"
         style="fill:#293461;fill-opacity:1;fill-rule:nonzero;stroke:none"
         d="m 4507.53,2430.02 c 14.23,-2.36 23.86,-15.78 21.52,-30 -2.34,-14.23 -15.76,-23.86 -29.99,-21.52 -14.23,2.34 -23.85,15.77 -21.52,29.99 2.35,14.23 15.77,23.86 29.99,21.53" /><path
         id="path122"
         style="fill:#293461;fill-opacity:1;fill-rule:nonzero;stroke:none"
         d="m 3607.69,2667.84 c 0,14.41 -11.68,26.1 -26.1,26.1 -14.42,0 -26.11,-11.69 -26.11,-26.1 0,-14.42 11.69,-26.11 26.11,-26.11 14.42,0 26.1,11.69 26.1,26.11" /><path
         id="path124"
         style="fill:#293461;fill-opacity:1;fill-rule:nonzero;stroke:none"
         d="m 2483.93,2250.79 h -17.35 v 173.03 l 920.57,152.05 v 93.68 h 17.36 V 2561.14 L 2483.93,2409.1 v -158.31" /><path
         id="path126"
         style="fill:#293461;fill-opacity:1;fill-rule:nonzero;stroke:none"
         d="m 2501.36,2252.09 c 0,-14.41 -11.69,-26.11 -26.11,-26.11 -14.42,0 -26.1,11.7 -26.1,26.11 0,14.41 11.68,26.1 26.1,26.1 14.42,0 26.11,-11.69 26.11,-26.1" /><path
         id="path128"
         style="fill:#293461;fill-opacity:1;fill-rule:nonzero;stroke:none"
         d="m 3421.93,2668.24 c 0,14.42 -11.68,26.1 -26.1,26.1 -14.42,0 -26.1,-11.68 -26.1,-26.1 0,-14.41 11.68,-26.1 26.1,-26.1 14.42,0 26.1,11.69 26.1,26.1" /><path
         id="path130"
         style="fill:#293461;fill-opacity:1;fill-rule:nonzero;stroke:none"
         d="m 3450.12,61.8906 h -98.27 l -2.31,1.7383 -751.81,562.3511 -88.53,319.5 0.36,1187.67 h 17.36 L 2526.56,946.672 2612.88,636.328 3357.61,79.25 h 92.51 V 61.8906" /><path
         id="path132"
         style="fill:#293461;fill-opacity:1;fill-rule:nonzero;stroke:none"
         d="m 2492.13,2133.15 c 0,14.42 11.7,26.11 26.12,26.1 14.41,-0.01 26.09,-11.7 26.09,-26.11 0,-14.42 -11.69,-26.1 -26.11,-26.09 -14.41,0 -26.1,11.69 -26.1,26.1" /><path
         id="path134"
         style="fill:#293461;fill-opacity:1;fill-rule:nonzero;stroke:none"
         d="m 3450.12,44.4688 c 14.42,0 26.1,11.6914 26.1,26.1015 0,14.418 -11.68,26.1016 -26.1,26.1016 -14.42,0 -26.11,-11.6836 -26.11,-26.1016 0,-14.4101 11.69,-26.1015 26.11,-26.1015" /><path
         id="path136"
         style="fill:#293461;fill-opacity:1;fill-rule:nonzero;stroke:none"
         d="m 3404.46,25.6914 h -52.59 l -2.31,1.707 -784.32,582.4536 -0.81,2.777 -36.18,122.59 -5.15,17.453 -21.1,71.476 -10.12,34.321 -25.3,85.691 v 135.05 18.26 224.02 18.37 184.01 18.38 170.68 18.4 136.25 18.71 113.76 19.55 166.69 h 17.35 V 945.422 L 2580.25,620.328 3357.6,43.0391 h 46.86 V 25.6914" /><path
         id="path138"
         style="fill:#293461;fill-opacity:1;fill-rule:nonzero;stroke:none"
         d="m 2449.15,2186.29 c 0,14.41 11.68,26.1 26.1,26.1 14.42,0 26.11,-11.69 26.11,-26.1 0,-14.41 -11.69,-26.1 -26.11,-26.1 -14.42,0 -26.1,11.69 -26.1,26.1" /><path
         id="path140"
         style="fill:#293461;fill-opacity:1;fill-rule:nonzero;stroke:none"
         d="m 3404.46,8.26953 c 14.42,0 26.11,11.67967 26.11,26.10157 0,14.4102 -11.69,26.0977 -26.11,26.0977 -14.42,0 -26.1,-11.6875 -26.1,-26.0977 0,-14.4219 11.68,-26.10157 26.1,-26.10157" /><path
         id="path142"
         style="fill:#293461;fill-opacity:1;fill-rule:nonzero;stroke:none"
         d="m 4511.98,2312.02 h -17.37 v 42.84 l -968.43,169.66 v 90.29 h 17.35 v -75.71 l 968.45,-169.66 v -57.42" /><path
         id="path144"
         style="fill:#293461;fill-opacity:1;fill-rule:nonzero;stroke:none"
         d="m 4529.4,2312.02 c 0,-14.41 -11.68,-26.1 -26.1,-26.1 -14.42,0 -26.11,11.69 -26.11,26.1 0,14.42 11.69,26.11 26.11,26.11 14.42,0 26.1,-11.69 26.1,-26.11" /><path
         id="path146"
         style="fill:#293461;fill-opacity:1;fill-rule:nonzero;stroke:none"
         d="m 3560.95,2614.81 c 0,14.42 -11.68,26.11 -26.1,26.11 -14.42,0 -26.1,-11.69 -26.1,-26.11 0,-14.41 11.68,-26.1 26.1,-26.1 14.42,0 26.1,11.69 26.1,26.1" /><path
         id="path148"
         style="fill:#293461;fill-opacity:1;fill-rule:nonzero;stroke:none"
         d="m 4441.34,2324.42 -909.23,167.38 -14.2,-30.06 -101.91,-15.73 -2.65,17.16 92.8,14.32 15.98,33.79 6.57,-1.2 915.78,-168.59 -3.14,-17.07" /><path
         id="path150"
         style="fill:#293461;fill-opacity:1;fill-rule:nonzero;stroke:none"
         d="m 4446.34,2358.86 c 14.18,-2.61 23.57,-16.22 20.96,-30.4 -2.62,-14.17 -16.23,-23.55 -30.4,-20.94 -14.18,2.61 -23.57,16.22 -20.95,30.4 2.61,14.17 16.22,23.55 30.39,20.94" /><path
         id="path152"
         style="fill:#293461;fill-opacity:1;fill-rule:nonzero;stroke:none"
         d="m 3411.99,2480.59 c -14.25,-2.2 -24.01,-15.54 -21.82,-29.78 2.19,-14.24 15.54,-24.01 29.78,-21.82 14.24,2.2 24.01,15.53 21.81,29.78 -2.2,14.24 -15.53,24.02 -29.77,21.82" /><path
         id="path154"
         style="fill:#293461;fill-opacity:1;fill-rule:nonzero;stroke:none"
         d="m 3612.14,61.8906 h -94.13 V 79.25 h 88.44 l 757.35,557.859 90.66,309.621 v 1325.11 l -64.96,12.54 3.3,17.05 79.01,-15.26 -0.34,-1343.131 -92.67,-316.43 -2.36,-1.73 -764.3,-562.9884" /><path
         id="path156"
         style="fill:#293461;fill-opacity:1;fill-rule:nonzero;stroke:none"
         d="m 3519.33,44.4688 c -14.42,0 -26.1,11.6914 -26.1,26.1015 0,14.418 11.68,26.1016 26.1,26.1016 14.42,0 26.1,-11.6836 26.1,-26.1016 0,-14.4101 -11.68,-26.1015 -26.1,-26.1015" /><path
         id="path158"
         style="fill:#293461;fill-opacity:1;fill-rule:nonzero;stroke:none"
         d="m 4397.37,2318.29 c -14.14,2.73 -27.84,-6.53 -30.58,-20.68 -2.73,-14.16 6.54,-27.84 20.69,-30.59 14.16,-2.73 27.84,6.54 30.57,20.69 2.74,14.15 -6.53,27.84 -20.68,30.58" /><path
         id="path160"
         style="fill:#293461;fill-opacity:1;fill-rule:nonzero;stroke:none"
         d="m 3610.3,101.73 h -48.89 v 17.372 h 43.16 l 722.56,535.82 83.36,289.617 V 2233.46 l -87.07,20.97 4.08,16.87 100.35,-24.17 L 4427.5,940.93 4342.18,644.488 3610.3,101.73" /><path
         id="path162"
         style="fill:#293461;fill-opacity:1;fill-rule:nonzero;stroke:none"
         d="m 3562.72,84.3086 c -14.42,0 -26.1,11.6797 -26.1,26.1014 0,14.43 11.68,26.11 26.1,26.11 14.41,0 26.1,-11.68 26.1,-26.11 0,-14.4217 -11.69,-26.1014 -26.1,-26.1014" /><path
         id="path164"
         style="fill:#293461;fill-opacity:1;fill-rule:nonzero;stroke:none"
         d="m 4332.85,2287.94 c -14.02,3.38 -28.12,-5.25 -31.5,-19.26 -3.38,-14.01 5.26,-28.11 19.27,-31.49 14.01,-3.38 28.12,5.24 31.48,19.26 3.38,14.01 -5.24,28.11 -19.25,31.49" /><path
         id="path166"
         style="fill:#293461;fill-opacity:1;fill-rule:nonzero;stroke:none"
         d="m 3612.95,25.6914 h -51.54 v 17.3477 h 45.9 l 792.55,577.3199 94.75,326.352 V 2252.52 h 17.37 V 944.25 l -0.34,-1.18 -96.77,-333.25 -2.4,-1.75 -799.52,-582.3786" /><path
         id="path168"
         style="fill:#293461;fill-opacity:1;fill-rule:nonzero;stroke:none"
         d="m 4477.19,2251.21 c 0,14.41 11.69,26.1 26.11,26.1 14.42,0 26.1,-11.69 26.1,-26.1 0,-14.41 -11.68,-26.1 -26.1,-26.1 -14.42,0 -26.11,11.69 -26.11,26.1" /><path
         id="path170"
         style="fill:#293461;fill-opacity:1;fill-rule:nonzero;stroke:none"
         d="m 3562.72,60.4688 c -14.42,0 -26.1,-11.6875 -26.1,-26.0977 0,-14.4219 11.68,-26.10157 26.1,-26.10157 14.41,0 26.1,11.67967 26.1,26.10157 0,14.4102 -11.69,26.0977 -26.1,26.0977" /><path
         id="path172"
         style="fill:#293461;fill-opacity:1;fill-rule:nonzero;stroke:none"
         d="m 3405.45,101.73 h -53.62 l -722.3,543.09 -81.21,301.008 -0.57,1120.192 17.36,0.02 0.56,-1119.052 79.05,-291.886 712.92,-536 h 47.81 V 101.73" /><path
         id="path174"
         style="fill:#293461;fill-opacity:1;fill-rule:nonzero;stroke:none"
         d="m 2530.33,2064.71 c -0.01,14.42 11.67,26.11 26.09,26.12 14.42,0.01 26.1,-11.68 26.11,-26.09 0.01,-14.42 -11.67,-26.11 -26.08,-26.12 -14.41,0 -26.11,11.68 -26.12,26.09" /><path
         id="path176"
         style="fill:#293461;fill-opacity:1;fill-rule:nonzero;stroke:none"
         d="m 3404.14,84.3086 c 14.41,0 26.1,11.6797 26.1,26.1014 0,14.43 -11.69,26.11 -26.1,26.11 -14.42,0 -26.11,-11.68 -26.11,-26.11 0,-14.4217 11.69,-26.1014 26.11,-26.1014" /><path
         id="path178"
         style="fill:#293461;fill-opacity:1;fill-rule:nonzero;stroke:none"
         d="m 2715.7,974.191 h 20.7 l 19.34,-78.531 h 0.29 l 19.19,78.531 h 20.54 l -28,-109.89 h -23.89 l -28.17,109.89" /><path
         id="path180"
         style="fill:#293461;fill-opacity:1;fill-rule:nonzero;stroke:none"
         d="m 2812.46,864.301 v 109.89 h 20.99 v -109.89 h -20.99" /><path
         id="path182"
         style="fill:#293461;fill-opacity:1;fill-rule:nonzero;stroke:none"
         d="m 2876.51,896.879 c 0,-12.18 5.33,-15.527 13.7,-15.527 8.37,0 13.71,3.347 13.71,15.527 v 7.301 h 20.99 v -4.571 c 0,-27.089 -14.3,-36.82 -34.7,-36.82 -20.4,0 -34.71,9.731 -34.71,36.82 v 39.27 c 0,27.09 14.31,36.84 34.71,36.84 20.4,0 34.7,-9.75 34.7,-36.84 v -0.289 h -20.99 v 3.031 c 0,12.18 -5.34,15.52 -13.71,15.52 -8.37,0 -13.7,-3.34 -13.7,-15.52 v -44.742" /><path
         id="path184"
         style="fill:#293461;fill-opacity:1;fill-rule:nonzero;stroke:none"
         d="m 3009.34,974.191 v -18.57 h -24.51 v -91.32 h -21 v 91.32 h -24.51 v 18.57 h 70.02" /><path
         id="path186"
         style="fill:#293461;fill-opacity:1;fill-rule:nonzero;stroke:none"
         d="m 3044.77,896.879 c 0,-12.18 5.32,-15.527 13.7,-15.527 8.36,0 13.7,3.347 13.7,15.527 v 44.742 c 0,12.18 -5.34,15.52 -13.7,15.52 -8.38,0 -13.7,-3.34 -13.7,-15.52 z m -21.02,42 c 0,27.09 14.32,36.84 34.72,36.84 20.39,0 34.7,-9.75 34.7,-36.84 v -39.27 c 0,-27.089 -14.31,-36.82 -34.7,-36.82 -20.4,0 -34.72,9.731 -34.72,36.82 v 39.27" /><path
         id="path188"
         style="fill:#293461;fill-opacity:1;fill-rule:nonzero;stroke:none"
         d="m 3134.98,926.398 h 10.8 c 9.29,0 14.92,4.571 14.92,15.223 0,10.66 -5.63,15.231 -14.92,15.231 h -10.8 z m 28.31,-62.097 -18.28,44.738 h -10.03 v -44.738 h -21.02 v 109.89 h 30.45 c 25.27,0 37.28,-12.171 37.28,-32.871 0,-13.699 -4.87,-23.59 -16.57,-28.011 l 20.7,-49.008 h -22.53" /><path
         id="path190"
         style="fill:#293461;fill-opacity:1;fill-rule:nonzero;stroke:none"
         d="m 3203.56,864.301 v 109.89 h 21.01 v -109.89 h -21.01" /><path
         id="path192"
         style="fill:#293461;fill-opacity:1;fill-rule:nonzero;stroke:none"
         d="m 3270.97,906 h 20.85 l -10.2,44.441 h -0.29 z m -29.99,-41.699 27.26,109.89 h 26.94 l 26.48,-109.89 h -20.1 l -5.32,23.14 h -29.07 l -5.95,-23.14 h -20.24" /><path
         id="path194"
         style="fill:#293461;fill-opacity:1;fill-rule:nonzero;stroke:none"
         d="m 3382.92,864.301 v 109.89 h 57.53 v -18.57 h -36.52 v -25.262 h 27.86 v -18.578 h -27.86 v -28.91 h 38.05 v -18.57 h -59.06" /><path
         id="path196"
         style="fill:#293461;fill-opacity:1;fill-rule:nonzero;stroke:none"
         d="m 3464,864.301 v 109.89 h 22.99 l 29.21,-65.152 h 0.32 v 65.152 h 19.18 v -109.89 h -20.1 l -32.12,70.929 h -0.31 V 864.301 H 3464" /><path
         id="path198"
         style="fill:#293461;fill-opacity:1;fill-rule:nonzero;stroke:none"
         d="m 3612.03,873.43 c -5.62,-6.391 -11.7,-10.641 -19.62,-10.641 -20.42,0 -34.71,9.731 -34.71,36.82 v 39.27 c 0,27.09 14.29,36.84 34.71,36.84 21.45,0 33.01,-12.328 33.79,-37.301 h -21.02 c 0,14.16 -5.17,18.723 -12.77,18.723 -8.38,0 -13.7,-3.34 -13.7,-15.52 v -44.742 c 0,-12.18 5.32,-15.527 13.7,-15.527 7.92,0 12.77,5.769 12.77,15.226 v 6.692 h -14.76 v 17.351 h 35.78 v -56.32 h -10.97 l -3.2,9.129" /><path
         id="path200"
         style="fill:#293461;fill-opacity:1;fill-rule:nonzero;stroke:none"
         d="m 3649.13,864.301 v 109.89 h 21.01 v -109.89 h -21.01" /><path
         id="path202"
         style="fill:#293461;fill-opacity:1;fill-rule:nonzero;stroke:none"
         d="m 3695.22,864.301 v 109.89 h 22.99 l 29.23,-65.152 h 0.29 v 65.152 h 19.19 v -109.89 h -20.1 l -32.12,70.929 h -0.3 v -70.929 h -19.18" /><path
         id="path204"
         style="fill:#293461;fill-opacity:1;fill-rule:nonzero;stroke:none"
         d="m 3790.75,864.301 v 109.89 h 57.54 v -18.57 h -36.53 v -25.262 h 27.84 v -18.578 h -27.84 v -28.91 h 38.05 v -18.57 h -59.06" /><path
         id="path206"
         style="fill:#293461;fill-opacity:1;fill-rule:nonzero;stroke:none"
         d="m 3870.61,864.301 v 109.89 h 57.53 v -18.57 h -36.5 v -25.262 h 27.83 v -18.578 h -27.83 v -28.91 h 38.04 v -18.57 h -59.07" /><path
         id="path208"
         style="fill:#293461;fill-opacity:1;fill-rule:nonzero;stroke:none"
         d="m 3971.48,926.398 h 10.81 c 9.28,0 14.91,4.571 14.91,15.223 0,10.66 -5.63,15.231 -14.91,15.231 h -10.81 z m 28.32,-62.097 -18.27,44.738 h -10.05 v -44.738 h -21.01 v 109.89 h 30.44 c 25.27,0 37.3,-12.171 37.3,-32.871 0,-13.699 -4.87,-23.59 -16.59,-28.011 l 20.7,-49.008 h -22.52" /><path
         id="path210"
         style="fill:#293461;fill-opacity:1;fill-rule:nonzero;stroke:none"
         d="m 4040.08,864.301 v 109.89 h 21.01 v -109.89 h -21.01" /><path
         id="path212"
         style="fill:#293461;fill-opacity:1;fill-rule:nonzero;stroke:none"
         d="m 4086.17,864.301 v 109.89 h 23 l 29.21,-65.152 h 0.3 v 65.152 h 19.18 v -109.89 h -20.09 l -32.11,70.929 h -0.31 v -70.929 h -19.18" /><path
         id="path214"
         style="fill:#293461;fill-opacity:1;fill-rule:nonzero;stroke:none"
         d="m 4234.22,873.43 c -5.64,-6.391 -11.72,-10.641 -19.63,-10.641 -20.41,0 -34.72,9.731 -34.72,36.82 v 39.27 c 0,27.09 14.31,36.84 34.72,36.84 21.46,0 33,-12.328 33.78,-37.301 h -21.01 c 0,14.16 -5.17,18.723 -12.77,18.723 -8.37,0 -13.71,-3.34 -13.71,-15.52 v -44.742 c 0,-12.18 5.34,-15.527 13.71,-15.527 7.91,0 12.77,5.769 12.77,15.226 v 6.692 h -14.76 v 17.351 h 35.77 v -56.32 h -10.96 l -3.19,9.129" /><path
         id="path216"
         style="fill:#293461;fill-opacity:1;fill-rule:nonzero;stroke:none"
         d="m 3343.23,733.879 c 0,-12.18 5.33,-15.52 13.7,-15.52 8.36,0 13.7,3.34 13.7,15.52 v 7.312 h 21 v -4.57 c 0,-27.082 -14.3,-36.82 -34.7,-36.82 -20.4,0 -34.7,9.738 -34.7,36.82 v 39.258 c 0,27.121 14.3,36.851 34.7,36.851 20.4,0 34.7,-9.73 34.7,-36.851 v -0.289 h -21 v 3.051 c 0,12.148 -5.34,15.507 -13.7,15.507 -8.37,0 -13.7,-3.359 -13.7,-15.507 v -44.762" /><path
         id="path218"
         style="fill:#293461;fill-opacity:1;fill-rule:nonzero;stroke:none"
         d="m 3412.44,701.309 v 109.89 h 21 v -91.32 h 33.77 v -18.57 h -54.77" /><path
         id="path220"
         style="fill:#293461;fill-opacity:1;fill-rule:nonzero;stroke:none"
         d="M 3506,811.199 V 734.34 c 0,-10.5 4.57,-15.981 14.77,-15.981 10.2,0 14.93,5.481 14.93,15.981 v 76.859 h 20.99 V 734.18 c 0,-24.192 -14.29,-34.379 -35.92,-34.379 -21.61,0 -35.77,10.187 -35.77,34.379 v 77.019 h 21" /><path
         id="path222"
         style="fill:#293461;fill-opacity:1;fill-rule:nonzero;stroke:none"
         d="m 3601.55,718.672 h 8.82 c 10.94,0 16.71,6.387 16.71,15.969 0,10.507 -7.29,15.687 -18.25,15.687 h -7.28 z m 0,49 h 7.28 c 9.45,0 15.69,5.476 15.69,12.937 0,8.063 -4.73,13.231 -14.61,13.231 h -8.36 z m -21.04,43.527 h 29.55 c 22.52,0 35.47,-9.429 35.47,-28.308 0,-9.59 -4.73,-17.512 -13.55,-22.821 11.57,-7.32 16.12,-13.41 16.12,-27.109 0,-21.762 -14.61,-31.652 -36.84,-31.652 h -30.75 v 109.89" /><path
         id="path224"
         style="fill:none;stroke:#82878e;stroke-width:12.88010025;stroke-linecap:butt;stroke-linejoin:miter;stroke-miterlimit:10;stroke-dasharray:none;stroke-opacity:1"
         d="m 4324.19,1106 -1680.86,-0.02" /><path
         id="path226"
         style="fill:#82878e;fill-opacity:1;fill-rule:nonzero;stroke:none"
         d="m 4322.75,1135.05 c 16.04,0 29.05,-13.01 29.05,-29.05 0,-16.05 -13.01,-29.05 -29.05,-29.05 -16.05,0 -29.06,13 -29.06,29.05 0,16.04 13.01,29.05 29.06,29.05" /><path
         id="path228"
         style="fill:#82878e;fill-opacity:1;fill-rule:nonzero;stroke:none"
         d="m 2644.79,1135.03 c -16.04,0 -29.06,-13 -29.06,-29.05 0,-16.04 13.02,-29.05 29.06,-29.05 16.04,0 29.05,13.01 29.05,29.05 0,16.05 -13.01,29.05 -29.05,29.05" /><path
         id="path230"
         style="fill:#293461;fill-opacity:1;fill-rule:nonzero;stroke:none"
         d="m 3108.01,2055.98 -55.48,-826.21 h -277.37 l -55.47,826.21 h 142.81 l 43.67,-683.39 h 15.35 l 43.68,683.39 h 142.81" /><path
         id="path232"
         style="fill:#293461;fill-opacity:1;fill-rule:nonzero;stroke:none"
         d="m 3683.95,1372.59 v -142.82 h -387.13 v 826.21 h 387.13 v -141.63 h -245.5 v -199.48 h 195.93 v -141.63 h -195.93 v -200.65 h 245.5" /><path
         id="path234"
         style="fill:#293461;fill-opacity:1;fill-rule:nonzero;stroke:none"
         d="m 4102.91,1534.29 142.82,33.05 v -250.22 c 0,-47.22 -40.13,-87.35 -87.34,-87.35 h -212.46 c -48.39,0 -87.33,40.13 -87.33,87.35 v 651.52 c 0,48.39 38.94,87.34 87.33,87.34 h 212.46 c 47.21,0 87.34,-38.95 87.34,-87.34 v -167.61 l -142.82,-33.04 v 146.36 h -102.68 v -541.76 h 102.68 v 161.7" /><path
         id="path236"
         style="fill:#293461;fill-opacity:1;fill-rule:nonzero;stroke:none"
         d="M 2588.22,553.051 H 4375.47 V 234.641 H 2588.22 v 318.41" /><path
         id="path238"
         style="fill:none;stroke:#82878e;stroke-width:17.35659981;stroke-linecap:round;stroke-linejoin:round;stroke-miterlimit:4;stroke-dasharray:none;stroke-opacity:1"
         d="M 2588.22,553.051 H 4375.47 V 234.641 H 2588.22 Z" /><path
         id="path240"
         style="fill:#c9c7c9;fill-opacity:1;fill-rule:nonzero;stroke:none"
         d="m 3055.64,471.191 h 20.05 l 16.53,-90.48 h 0.39 l 13.57,90.48 h 22.8 l -24.96,-142.019 h -20.46 L 3065.86,423 h -0.39 l -16.53,-93.828 h -20.46 l -26.94,142.019 h 22.82 l 14.95,-90.48 h 0.38 l 15.95,90.48" /><path
         id="path242"
         style="fill:#c9c7c9;fill-opacity:1;fill-rule:nonzero;stroke:none"
         d="m 3146.52,329.172 v 142.019 h 65.29 v -21.25 h -40.9 v -36.582 h 31.47 v -21.238 h -31.47 v -41.699 h 43.66 v -21.25 h -68.05" /><path
         id="path244"
         style="fill:#c9c7c9;fill-opacity:1;fill-rule:nonzero;stroke:none"
         d="m 3305.83,349.23 h 8.47 c 12.98,0 17.49,4.93 17.49,19.879 v 62.153 c 0,14.949 -4.51,19.867 -17.49,19.867 h -8.47 z m -24.39,121.961 h 36.2 c 25.17,0 38.54,-13.769 38.54,-42.882 v -56.25 c 0,-29.118 -13.37,-42.887 -38.54,-42.887 h -36.2 v 142.019" /><path
         id="path246"
         style="fill:#c9c7c9;fill-opacity:1;fill-rule:nonzero;stroke:none"
         d="m 3406.16,364.191 c 0,-10.621 3.14,-15.742 12.98,-15.742 9.83,0 12.97,5.121 12.97,15.742 v 72 c 0,10.61 -3.14,15.719 -12.97,15.719 -9.84,0 -12.98,-5.109 -12.98,-15.719 z m -24.4,72.579 c 0,20.058 11.8,36.39 37.38,36.39 25.56,0 37.37,-16.332 37.37,-36.39 v -73.168 c 0,-20.051 -11.81,-36.383 -37.37,-36.383 -25.58,0 -37.38,16.332 -37.38,36.383 v 73.168" /><path
         id="path248"
         style="fill:#c9c7c9;fill-opacity:1;fill-rule:nonzero;stroke:none"
         d="m 3572.16,436.191 c -0.99,12.18 -7.47,15.719 -12.98,15.719 -7.88,0 -12.19,-5.109 -12.19,-13.961 0,-24.187 49.57,-35.801 49.57,-74.347 0,-23.403 -15.73,-36.383 -38.56,-36.383 -22.61,0 -35.6,18.09 -36.59,39.332 l 23.21,3.347 c 0.99,-14.367 6.68,-21.449 14.56,-21.449 8.46,0 14.17,4.531 14.17,12.992 0,28.118 -49.58,35.598 -49.58,76.309 0,22.621 13.78,35.41 37.78,35.41 19.86,0 31.67,-14.359 33.83,-34.43 l -23.22,-2.539" /><path
         id="path250"
         style="fill:#c9c7c9;fill-opacity:1;fill-rule:nonzero;stroke:none"
         d="m 3631.2,449.941 h -23.62 v 21.25 h 71.59 v -21.25 h -23.59 V 329.172 h -24.38 v 120.769" /><path
         id="path252"
         style="fill:#c9c7c9;fill-opacity:1;fill-rule:nonzero;stroke:none"
         d="m 3695.51,471.191 h 24.4 V 364 c 0,-10.43 4.13,-15.551 12.99,-15.551 8.84,0 12.96,5.121 12.96,15.551 v 107.191 h 24.4 V 364.969 c 0,-24.367 -14.17,-37.75 -37.36,-37.75 -23.22,0 -37.39,13.383 -37.39,37.75 v 106.222" /><path
         id="path254"
         style="fill:#c9c7c9;fill-opacity:1;fill-rule:nonzero;stroke:none"
         d="m 3795.83,329.172 v 142.019 h 68.06 v -21.25 h -43.66 v -36.582 h 32.65 v -21.238 h -32.65 v -62.949 h -24.4" /><path
         id="path256"
         style="fill:#c9c7c9;fill-opacity:1;fill-rule:nonzero;stroke:none"
         d="m 3885.15,329.172 v 142.019 h 68.05 v -21.25 h -43.66 v -36.582 h 32.63 v -21.238 h -32.63 v -62.949 h -24.39" /></g></g></svg>